inDegrees=yes
name=ik_S53_A04_T01
DataType=double
version=3
OpenSimVersion=4.3-2021-08-27-4bc7ad9
endheader
time	pelvis_tilt	pelvis_list	pelvis_rotation	pelvis_tx	pelvis_ty	pelvis_tz	hip_flexion_r	hip_adduction_r	hip_rotation_r	knee_angle_r	knee_angle_r_beta	ankle_angle_r	subtalar_angle_r	mtp_angle_r	hip_flexion_l	hip_adduction_l	hip_rotation_l	knee_angle_l	knee_angle_l_beta	ankle_angle_l	subtalar_angle_l	mtp_angle_l	lumbar_extension	lumbar_bending	lumbar_rotation	arm_flex_r	arm_add_r	arm_rot_r	elbow_flex_r	pro_sup_r	wrist_flex_r	wrist_dev_r	arm_flex_l	arm_add_l	arm_rot_l	elbow_flex_l	pro_sup_l	wrist_flex_l	wrist_dev_l
21.53333333333339	10.87190321587426	2.313943809089011	38.25823788828347	0	0.9399999999999999	0	45.35512724740551	-15.38097133335618	-10.78276845407048	79.96813097037533	1.395707182099097	0	0	0	52.53221056074618	-8.40596508815819	-3.842502636902914	80.79262785836502	1.410097367466965	0	0	0	0	0	0	25.05598873938749	-25.05598873938749	3.864892850469349	70.76984547577179	86.13510736912936	0	0	25.05598873938749	-25.05598873938749	3.864892850469349	70.76984547577179	86.13510736891753	0	0
21.55000000000006	11.32915069426823	2.847833024013911	38.37263404866819	0	0.9399999999999999	0	44.76130146524848	-15.42922053191583	-10.80270720558233	80.10053590626543	1.398018084176272	0	0	0	51.97071107603368	-8.210838018045033	-3.909783728101341	80.94658641248127	1.412784451147903	0	0	0	0	0	0	25.05765261898615	-25.05765261898615	3.865076928914732	70.77220314275091	86.13492329069369	0	0	25.05765261898615	-25.05765261898615	3.865076928914732	70.77220314275091	86.13492329048194	0	0
21.56666666666672	11.97144057228696	3.389569979233583	38.35611056629729	0	0.9399999999999999	0	44.0173214725319	-15.4117447623191	-10.88873341369635	80.21790930941287	1.400066636515465	0	0	0	51.1743142501697	-8.217037076836263	-3.889360801551278	80.98752102246618	1.413498894870159	0	0	0	0	0	0	25.05991978017135	-25.05991978017134	3.865327014192996	70.77540555598809	86.13467320542875	0	0	25.05991978017135	-25.05991978017134	3.865327014192996	70.77540555598809	86.13467320521706	0	0
21.58333333333339	12.15879001420305	3.479903192949792	38.3586567940453	0	0.9399999999999999	0	43.7979318932693	-15.35854443090929	-10.98774720046103	80.18392225436871	1.399473450501888	0	0	0	50.94305980713217	-8.268242001076683	-3.858281453115475	80.91420654796143	1.412219315900682	0	0	0	0	0	0	25.09600773779865	-25.09600773779865	3.869203868679177	70.82476892717192	86.13079635114654	0	0	25.09600773779865	-25.09600773779865	3.869203868679177	70.82476892717192	86.13079635093564	0	0
21.60000000000005	12.29053502134887	3.532590352019244	38.35049426824414	0	0.9399999999999999	0	43.79587061774867	-15.33347671157249	-11.14311716482532	80.30695166191293	1.401620718740313	0	0	0	50.79964324056296	-8.322892017881005	-3.805508746933778	80.89496280063034	1.411883449149333	0	0	0	0	0	0	25.09759740290791	-25.0975974029079	3.869380930560958	70.82703752605902	86.13061928927414	0	0	25.09759740290791	-25.0975974029079	3.869380930560958	70.82703752605902	86.13061928906329	0	0
21.61666666666672	12.43708402014403	3.709466728274769	38.31214478158483	0	0.9399999999999999	0	43.60514097536014	-15.35059857417047	-11.07971358861477	80.34342028556001	1.402257216296625	0	0	0	50.61267577799575	-8.311610100144884	-3.773326207273679	80.92544560828442	1.412415474508149	0	0	0	0	0	0	25.09913102783081	-25.09913102783081	3.869550348677843	70.82920695276361	86.13044987116621	0	0	25.09913102783081	-25.09913102783081	3.869550348677843	70.82920695276361	86.13044987095539	0	0
21.63333333333339	12.44629312496865	3.712913274743241	38.32669937014877	0	0.9399999999999999	0	43.67277917416618	-15.36388527909749	-11.21451371888488	80.39493881576151	1.403156384274429	0	0	0	50.58901073727792	-8.231066681349574	-3.671261544537306	80.90749766120307	1.412102223737605	0	0	0	0	0	0	25.10072214118338	-25.10072214118337	3.869728537538054	70.83149080318948	86.1302716823154	0	0	25.10072214118338	-25.10072214118337	3.869728537538054	70.83149080318948	86.13027168210465	0	0
21.65000000000005	12.9128167930034	4.27001979518959	38.20984703519229	0	0.9399999999999999	0	43.12958844691227	-15.41625805114412	-11.06937126058956	80.55385215141979	1.405929945206993	0	0	0	49.99242355293337	-8.158239938443387	-3.675006939508121	81.06477737536173	1.414847272596269	0	0	0	0	0	0	25.10230845356411	-25.10230845356411	3.869903613568111	70.8337325124877	86.13009660629461	0	0	25.10230845356411	-25.10230845356411	3.869903613568111	70.8337325124877	86.13009660608391	0	0
21.66666666666672	13.30393418545021	4.762241276773672	38.10149594599877	0	0.9399999999999999	0	42.66484359980247	-15.38438199944225	-11.0038713795834	80.62014011522926	1.407086888429911	0	0	0	49.39518799462319	-8.068045910272728	-3.679068007120801	81.1104428677116	1.415644285792319	0	0	0	0	0	0	25.10389668116245	-25.10389668116245	3.870079425720799	70.83598409824909	86.1299207941512	0	0	25.10389668116245	-25.10389668116245	3.870079425720799	70.83598409824909	86.1299207939405	0	0
21.68333333333338	13.4738157006426	4.944108866648233	38.05758192781293	0	0.9399999999999999	0	42.45317727955369	-15.36981221634072	-11.02786346071982	80.5975930319766	1.406693367590431	0	0	0	49.122985222085	-8.04238974889914	-3.627723145009316	81.07013882347152	1.41494084751846	0	0	0	0	0	0	25.10579458009584	-25.10579458009583	3.870290974487246	70.83869461329482	86.12970924539597	0	0	25.10579458009584	-25.10579458009583	3.870290974487246	70.83869461329482	86.12970924518531	0	0
21.70000000000005	13.49365297430556	4.941868158439446	37.98982398014545	0	0.9399999999999999	0	42.45037250877408	-15.31644714787021	-11.0558318512491	80.56621756017272	1.406145762303087	0	0	0	49.09358392304509	-8.098372255159028	-3.609735088515652	81.03349713025946	1.414301329328404	0	0	0	0	0	0	25.12494726124489	-25.12494726124488	3.872430952300464	70.86607356425458	86.12756926769624	0	0	25.12494726124489	-25.12494726124488	3.872430952300464	70.86607356425458	86.127569267486	0	0
21.71666666666671	13.6214939477324	4.932561936081372	37.92477349122213	0	0.9399999999999999	0	42.3421849948502	-15.16016491137492	-11.18137645703297	80.55737426154961	1.405991417625376	0	0	0	49.0322527855173	-8.240728760023279	-3.518042653211339	81.08567200241212	1.415211952634275	0	0	0	0	0	0	25.12680167017026	-25.12680167017025	3.872637415806925	70.86871853262214	86.1273628042007	0	0	25.12680167017026	-25.12680167017025	3.872637415806925	70.86871853262214	86.12736280399048	0	0
21.73333333333338	13.77861618494725	4.999393794811155	37.86336525264016	0	0.9399999999999999	0	42.13838137849154	-15.07953901104193	-11.24573916238792	80.5216411701942	1.405367757529309	0	0	0	48.88204234487542	-8.300382895883953	-3.511483448737178	81.09450666849798	1.415366146645788	0	0	0	0	0	0	25.15019074506158	-25.15019074506158	3.87510564006091	70.90005310770358	86.1248945800762	0	0	25.15019074506158	-25.15019074506158	3.87510564006091	70.90005310770358	86.12489457986641	0	0
21.75000000000005	13.85416867903541	5.033669682012058	37.83623057366965	0	0.9399999999999999	0	42.00051776379803	-15.06636297772193	-11.2930464840771	80.47211615912353	1.404503383024039	0	0	0	48.81185925293679	-8.392512019695781	-3.455039289193111	81.14416069410846	1.41623277287956	0	0	0	0	0	0	25.17201849252164	-25.17201849252163	3.877369691146079	70.92872314568379	86.12263052910932	0	0	25.17201849252164	-25.17201849252163	3.877369691146079	70.92872314568379	86.12263052889993	0	0
21.76666666666671	13.99218131000947	5.097654214054293	37.78474593172523	0	0.9399999999999999	0	41.88009647414022	-14.98486331373281	-11.30701528744087	80.47651998676371	1.40458024431605	-1.730291454734681e-35	0	0	48.70539261129114	-8.41963455647689	-3.435714784546098	81.22239818957642	1.41759827477399	-1.730291454734681e-35	0	0	0	0	0	25.18484391879436	-25.18484391879436	3.878634451744878	70.94461795486906	86.12136576857588	0	0	25.18484391879436	-25.18484391879436	3.878634451744878	70.94461795486906	86.12136576836673	0	0
21.78333333333338	14.00500378829094	5.120742465768934	37.7963341103717	0	0.9399999999999999	0	41.87125695136526	-14.88548101367918	-11.36823603394854	80.46807763096042	1.404432897410658	-9.369769003157998e-53	0	0	48.69083176071757	-8.37519151031313	-3.460768494109969	81.24045380598956	1.417913404728876	-9.369769003157998e-53	0	0	0	0	0	25.19178078483271	-25.19178078483271	3.879416431460599	70.95464319883676	86.1205837889017	0	0	25.19178078483271	-25.19178078483271	3.879416431460599	70.95464319883676	86.1205837886927	0	0
21.80000000000004	14.26187071489109	5.231146721577319	37.69017349207542	0	0.9399999999999999	0	41.5955072967319	-14.84169659595497	-11.46099550632877	80.49532664901716	1.404908482493683	0	0	0	48.489107007013	-8.453485387450023	-3.508189111251923	81.3910800978428	1.420542329461785	0	0	0	0	0	0	25.19328887790626	-25.19328887790625	3.879582786095639	70.95677265684952	86.12041743427548	0	0	25.19328887790626	-25.19328887790625	3.879582786095639	70.95677265684952	86.12041743406652	0	0
21.81666666666671	14.40470839754803	5.294809749453615	37.65393250073522	0	0.9399999999999999	0	41.44541706205062	-14.8507764961706	-11.52968809869891	80.5301323461279	1.405515956506718	0	0	0	48.38865820528036	-8.485751130618635	-3.558470755736064	81.45183789303705	1.421602753034177	0	0	0	0	0	0	25.19947151843696	-25.19947151843695	3.880109066497059	70.96321968980425	86.11989115390028	0	0	25.19947151843696	-25.19947151843695	3.880109066497059	70.96321968980425	86.1198911536915	0	0
21.83333333333337	14.48986869309132	5.317966972487389	37.66254688689841	0	0.9399999999999999	0	41.35626716267498	-14.81049893671288	-11.59513454867767	80.55076898138317	1.405876133738455	0	0	0	48.33502905363692	-8.479883783591832	-3.628473940156807	81.53991816999876	1.423140043873228	0	0	0	0	0	0	25.20012402670064	-25.20012402670063	3.880105864150956	70.96302802994811	86.11989435624545	0	0	25.20012402670064	-25.20012402670063	3.880105864150956	70.96302802994811	86.11989435603665	0	0
21.85000000000004	14.56495724652724	5.334093046497323	37.63379910973833	0	0.9399999999999999	0	41.26583468763555	-14.77006636389267	-11.64917935112477	80.5665294685807	1.40615120613177	0	0	0	48.26476715976091	-8.500389525511357	-3.692415893574279	81.61392718945088	1.42443174493884	0	0	0	0	0	0	25.21832089601613	-25.21832089601612	3.881881335041203	70.98532806581781	86.11811888544672	0	0	25.21832089601613	-25.21832089601612	3.881881335041203	70.98532806581781	86.11811888523825	0	0
21.86666666666671	14.61526973887996	5.338087378894952	37.65280691309819	0	0.9399999999999999	0	41.21579805244659	-14.78122652229353	-11.68570378180675	80.56684734810796	1.406156754176146	0	0	0	48.26471987756751	-8.532637319982218	-3.692531557641065	81.68047323418494	1.425593192523629	0	0	0	0	0	0	25.21664662879728	-25.21664662879727	3.881666312566452	70.98250681406347	86.11833390790979	0	0	25.21664662879728	-25.21664662879727	3.881666312566452	70.98250681406347	86.11833390770127	0	0
21.88333333333337	14.68453131763323	5.33742659251989	37.65587491515739	0	0.9399999999999999	0	41.14733973686692	-14.794488011317	-11.71889173200375	80.60011829541088	1.406737441751839	0	0	0	48.26057425790684	-8.599962449154191	-3.701633397070072	81.76538859376804	1.427075245133868	0	0	0	0	0	0	25.21519591465051	-25.2151959146505	3.881427825897718	70.97930823035091	86.11857239456511	0	0	25.21519591465051	-25.2151959146505	3.881427825897718	70.97930823035091	86.11857239435655	0	0
